<svg id="visual" viewBox="0 0 960 540" width="960" height="540" xmlns="http://www.w3.org/2000/svg" xmlns:xlink="http://www.w3.org/1999/xlink" version="1.1"><rect x="0" y="0" width="960" height="540" fill="#001220"></rect><path d="M0 273L20 277.2C40 281.3 80 289.7 120 305.8C160 322 200 346 240 348C280 350 320 330 360 316.5C400 303 440 296 480 305.2C520 314.3 560 339.7 600 336.2C640 332.7 680 300.3 720 289.2C760 278 800 288 840 301C880 314 920 330 940 338L960 346L960 541L940 541C920 541 880 541 840 541C800 541 760 541 720 541C680 541 640 541 600 541C560 541 520 541 480 541C440 541 400 541 360 541C320 541 280 541 240 541C200 541 160 541 120 541C80 541 40 541 20 541L0 541Z" fill="#6983fa"></path><path d="M0 309L20 310.5C40 312 80 315 120 313C160 311 200 304 240 316.5C280 329 320 361 360 369.7C400 378.3 440 363.7 480 360.7C520 357.7 560 366.3 600 356.2C640 346 680 317 720 308.5C760 300 800 312 840 328.8C880 345.7 920 367.3 940 378.2L960 389L960 541L940 541C920 541 880 541 840 541C800 541 760 541 720 541C680 541 640 541 600 541C560 541 520 541 480 541C440 541 400 541 360 541C320 541 280 541 240 541C200 541 160 541 120 541C80 541 40 541 20 541L0 541Z" fill="#5f77f3"></path><path d="M0 353L20 350.5C40 348 80 343 120 350.5C160 358 200 378 240 389.3C280 400.7 320 403.3 360 404C400 404.7 440 403.3 480 393.2C520 383 560 364 600 365.5C640 367 680 389 720 392.2C760 395.3 800 379.7 840 379C880 378.3 920 392.7 940 399.8L960 407L960 541L940 541C920 541 880 541 840 541C800 541 760 541 720 541C680 541 640 541 600 541C560 541 520 541 480 541C440 541 400 541 360 541C320 541 280 541 240 541C200 541 160 541 120 541C80 541 40 541 20 541L0 541Z" fill="#556ced"></path><path d="M0 378L20 375C40 372 80 366 120 363.7C160 361.3 200 362.7 240 372C280 381.3 320 398.7 360 407.8C400 417 440 418 480 411.8C520 405.7 560 392.3 600 391.8C640 391.3 680 403.7 720 407.2C760 410.7 800 405.3 840 408C880 410.7 920 421.3 940 426.7L960 432L960 541L940 541C920 541 880 541 840 541C800 541 760 541 720 541C680 541 640 541 600 541C560 541 520 541 480 541C440 541 400 541 360 541C320 541 280 541 240 541C200 541 160 541 120 541C80 541 40 541 20 541L0 541Z" fill="#4c60e6"></path><path d="M0 453L20 449.5C40 446 80 439 120 438C160 437 200 442 240 442.5C280 443 320 439 360 435C400 431 440 427 480 429.7C520 432.3 560 441.7 600 441.3C640 441 680 431 720 422.3C760 413.7 800 406.3 840 401.3C880 396.3 920 393.7 940 392.3L960 391L960 541L940 541C920 541 880 541 840 541C800 541 760 541 720 541C680 541 640 541 600 541C560 541 520 541 480 541C440 541 400 541 360 541C320 541 280 541 240 541C200 541 160 541 120 541C80 541 40 541 20 541L0 541Z" fill="#4254de"></path><path d="M0 457L20 460.3C40 463.7 80 470.3 120 464.8C160 459.3 200 441.7 240 438.7C280 435.7 320 447.3 360 450.5C400 453.7 440 448.3 480 449C520 449.7 560 456.3 600 462.2C640 468 680 473 720 472.8C760 472.7 800 467.3 840 467.7C880 468 920 474 940 477L960 480L960 541L940 541C920 541 880 541 840 541C800 541 760 541 720 541C680 541 640 541 600 541C560 541 520 541 480 541C440 541 400 541 360 541C320 541 280 541 240 541C200 541 160 541 120 541C80 541 40 541 20 541L0 541Z" fill="#3848d7"></path><path d="M0 466L20 469.5C40 473 80 480 120 485.8C160 491.7 200 496.3 240 493.7C280 491 320 481 360 475.5C400 470 440 469 480 468.8C520 468.7 560 469.3 600 470.8C640 472.3 680 474.7 720 474.5C760 474.3 800 471.7 840 474C880 476.3 920 483.7 940 487.3L960 491L960 541L940 541C920 541 880 541 840 541C800 541 760 541 720 541C680 541 640 541 600 541C560 541 520 541 480 541C440 541 400 541 360 541C320 541 280 541 240 541C200 541 160 541 120 541C80 541 40 541 20 541L0 541Z" fill="#2f3bcf"></path><path d="M0 520L20 519C40 518 80 516 120 510.7C160 505.3 200 496.7 240 492.8C280 489 320 490 360 491.3C400 492.7 440 494.3 480 495C520 495.7 560 495.3 600 494.5C640 493.7 680 492.3 720 492.7C760 493 800 495 840 498.8C880 502.7 920 508.3 940 511.2L960 514L960 541L940 541C920 541 880 541 840 541C800 541 760 541 720 541C680 541 640 541 600 541C560 541 520 541 480 541C440 541 400 541 360 541C320 541 280 541 240 541C200 541 160 541 120 541C80 541 40 541 20 541L0 541Z" fill="#242ec7"></path></svg>